<?xml version="1.0" standalone="no"?>
<!DOCTYPE svg PUBLIC "-//W3C//DTD SVG 20010904//EN"
 "http://www.w3.org/TR/2001/REC-SVG-20010904/DTD/svg10.dtd">
<svg version="1.0" xmlns="http://www.w3.org/2000/svg"
 width="225.000000pt" height="225.000000pt" viewBox="0 0 225.000000 225.000000"
 preserveAspectRatio="xMidYMid meet">

<g transform="translate(0.000000,225.000000) scale(0.100000,-0.100000)"
fill="#000000" stroke="none">
<path d="M967 1840 c-103 -26 -197 -102 -243 -196 -16 -34 -33 -54 -43 -54
-34 0 -120 -52 -166 -101 -72 -77 -100 -146 -99 -249 0 -86 16 -142 62 -210
13 -20 17 -49 17 -135 0 -98 3 -116 26 -165 37 -78 88 -131 161 -170 56 -30
73 -35 158 -38 88 -4 97 -6 125 -32 17 -16 57 -41 90 -56 50 -24 74 -28 145
-28 74 0 93 4 150 30 78 37 140 97 176 170 14 30 33 54 41 54 34 0 124 54 167
100 73 78 101 147 100 250 0 86 -16 142 -62 210 -13 20 -17 49 -17 135 0 93
-4 118 -23 159 -64 140 -187 218 -342 217 -69 0 -77 2 -105 29 -69 67 -220
105 -318 80z m201 -116 c30 -13 51 -28 48 -33 -3 -4 -67 -43 -142 -86 -75 -43
-145 -86 -155 -96 -17 -17 -19 -37 -19 -224 0 -113 -2 -205 -5 -205 -3 0 -30
14 -60 31 l-55 31 0 201 c0 181 3 207 21 247 37 83 113 143 202 159 56 10 101
4 165 -25z m337 -108 c60 -27 108 -73 136 -129 24 -46 38 -157 21 -157 -6 0
-77 38 -157 85 -81 47 -153 85 -161 85 -8 0 -89 -43 -179 -95 -90 -52 -171
-98 -179 -101 -14 -5 -16 5 -16 64 l0 70 160 92 c88 50 172 95 188 100 55 17
135 11 187 -14z m-825 -301 c0 -154 2 -177 18 -192 9 -10 90 -60 179 -111 90
-52 165 -98 168 -102 6 -9 -91 -70 -111 -70 -22 0 -310 172 -346 207 -77 75
-102 201 -59 299 12 27 29 57 39 68 21 24 92 76 104 76 4 0 8 -79 8 -175z
m820 -5 c144 -82 190 -123 220 -193 32 -74 26 -176 -15 -243 -28 -45 -104
-114 -126 -114 -5 0 -9 75 -9 175 0 155 -2 177 -18 193 -10 10 -95 63 -190
117 l-171 99 62 37 c62 36 62 36 92 18 17 -9 86 -50 155 -89z m-267 -65 l47
-27 0 -93 0 -93 -74 -42 c-41 -24 -77 -43 -81 -43 -4 0 -40 19 -81 43 l-74 42
0 93 0 92 78 46 77 45 30 -18 c17 -9 51 -30 78 -45z m182 -106 l55 -31 0 -201
c0 -192 -1 -205 -24 -252 -47 -100 -135 -154 -249 -155 -53 0 -79 6 -118 25
-27 14 -47 29 -45 34 3 4 67 44 143 87 76 43 146 87 155 96 16 16 18 41 18
223 0 113 2 205 5 205 3 0 30 -14 60 -31z m-135 -253 l0 -74 -172 -98 -172
-99 -81 0 c-63 0 -89 5 -121 22 -53 28 -99 75 -125 126 -24 46 -38 157 -21
157 6 0 77 -38 157 -85 81 -47 154 -85 163 -84 10 0 96 47 192 104 96 57 176
103 178 104 1 1 2 -32 2 -73z"/>
</g>
</svg>
